# xmcd
#
# Track frame offsets:
#	150
#	21216
#	42917
#	56568
#	61721
#	93775
#	110721
#	119458
#	139449
#	147533
#	154561
#	165492
#	176880
#
# Disc length: 2434 seconds
#
# Revision: 1
# Processed by: cddbd v1.5.2PL0 Copyright (c) Steve Scherf et al.
# Submitted via: audiograbber 1.83.01
#
DISCID=b509800d
DTITLE=simone white - silver silver
DYEAR=2012
DGENRE=Country
TTITLE0=flowers in may
TTITLE1=big dreams and the headlines
TTITLE2=never be that tough
TTITLE3=we didn't know
TTITLE4=silver silver
TTITLE5=what the devil brings
TTITLE6=long moon
TTITLE7=in the water where the city ends
TTITLE8=star
TTITLE9=frogs
TTITLE10=now the revolution
TTITLE11=bonnie brae
TTITLE12=every little now and then
EXTD=
EXTT0=
EXTT1=
EXTT2=
EXTT3=
EXTT4=
EXTT5=
EXTT6=
EXTT7=
EXTT8=
EXTT9=
EXTT10=
EXTT11=
EXTT12=
PLAYORDER=
